<?xml version="1.0" encoding="UTF-8"?>
<!DOCTYPE svg PUBLIC "-//W3C//DTD SVG 1.1//EN" "http://www.w3.org/Graphics/SVG/1.1/DTD/svg11.dtd">
<svg xmlns="http://www.w3.org/2000/svg" version="1.1" width="820px" height="449px" style="shape-rendering:geometricPrecision; text-rendering:geometricPrecision; image-rendering:optimizeQuality; fill-rule:evenodd; clip-rule:evenodd" xmlns:xlink="http://www.w3.org/1999/xlink">
<g><path style="opacity:1" fill="#f5f5f5" d="M -0.5,-0.5 C 272.833,-0.5 546.167,-0.5 819.5,-0.5C 819.5,149.167 819.5,298.833 819.5,448.5C 546.167,448.5 272.833,448.5 -0.5,448.5C -0.5,298.833 -0.5,149.167 -0.5,-0.5 Z"/></g>
<g><path style="opacity:1" fill="#f4d873" d="M 437.5,40.5 C 437.5,40.8333 437.5,41.1667 437.5,41.5C 418.833,41.5 400.167,41.5 381.5,41.5C 390.475,40.1683 399.809,39.5016 409.5,39.5C 419.006,39.5002 428.339,39.8335 437.5,40.5 Z"/></g>
<g><path style="opacity:1" fill="#fdf0c4" d="M 437.5,41.5 C 437.5,41.1667 437.5,40.8333 437.5,40.5C 445.174,40.3336 452.841,40.5003 460.5,41C 462.833,42.043 465.166,42.8763 467.5,43.5C 465.167,43.5 462.833,43.5 460.5,43.5C 452.866,42.531 445.199,41.8643 437.5,41.5 Z"/></g>
<g><path style="opacity:1" fill="#f6d45c" d="M 381.5,41.5 C 374.361,42.7071 367.028,43.3738 359.5,43.5C 359.5,43.1667 359.5,42.8333 359.5,42.5C 366.817,41.8822 374.151,41.5488 381.5,41.5 Z"/></g>
<g><path style="opacity:1" fill="#fdc602" d="M 381.5,41.5 C 400.167,41.5 418.833,41.5 437.5,41.5C 445.199,41.8643 452.866,42.531 460.5,43.5C 465.29,44.7249 470.29,45.3916 475.5,45.5C 479.539,46.3158 483.539,47.3158 487.5,48.5C 489.5,49.1667 491.5,49.8333 493.5,50.5C 495.025,52.0358 497.025,53.0358 499.5,53.5C 503.476,54.3855 507.476,55.0522 511.5,55.5C 514.885,55.8457 518.218,56.5123 521.5,57.5C 522.713,57.7472 523.38,58.4138 523.5,59.5C 523.47,60.4972 523.97,61.1639 525,61.5C 530.244,63.6856 535.744,65.0189 541.5,65.5C 543.53,69.5053 546.863,71.5053 551.5,71.5C 558.509,74.5278 565.176,78.0278 571.5,82C 572.793,82.49 574.127,82.6567 575.5,82.5C 577.421,83.3627 579.421,84.0293 581.5,84.5C 581.953,85.4584 582.619,86.2917 583.5,87C 588.972,89.5694 594.305,92.4028 599.5,95.5C 600.412,96.7382 600.579,98.0715 600,99.5C 597.585,100.411 596.085,102.078 595.5,104.5C 584.587,113.909 574.087,123.909 564,134.5C 563.536,135.094 563.369,135.761 563.5,136.5C 554.588,143.907 546.088,151.907 538,160.5C 537.536,161.094 537.369,161.761 537.5,162.5C 517.918,180.58 498.752,199.246 480,218.5C 479.536,219.094 479.369,219.761 479.5,220.5C 478.292,221.234 476.959,221.567 475.5,221.5C 474.5,218.5 472.5,216.5 469.5,215.5C 464.833,212.5 460.167,209.5 455.5,206.5C 455.5,206.167 455.5,205.833 455.5,205.5C 454.281,201.62 451.615,199.62 447.5,199.5C 447.167,199.5 446.833,199.5 446.5,199.5C 445.847,198.193 445.18,196.86 444.5,195.5C 442.089,194.912 440.089,193.745 438.5,192C 437.207,191.51 435.873,191.343 434.5,191.5C 431.741,190.358 429.074,189.024 426.5,187.5C 424.619,184.871 421.953,183.537 418.5,183.5C 413.074,182.243 408.074,180.243 403.5,177.5C 403.047,176.542 402.381,175.708 401.5,175C 394.396,172.354 387.063,170.854 379.5,170.5C 375.764,169.011 371.764,168.344 367.5,168.5C 367.5,168.167 367.5,167.833 367.5,167.5C 362.417,165.922 357.084,165.255 351.5,165.5C 347.627,163.57 343.294,162.903 338.5,163.5C 338.333,125.165 338.5,86.8319 339,48.5C 340.622,47.9011 342.122,47.2344 343.5,46.5C 343.5,46.1667 343.5,45.8333 343.5,45.5C 349.034,45.3315 354.367,44.6649 359.5,43.5C 367.028,43.3738 374.361,42.7071 381.5,41.5 Z"/></g>
<g><path style="opacity:1" fill="#ffedae" d="M 359.5,42.5 C 359.5,42.8333 359.5,43.1667 359.5,43.5C 354.367,44.6649 349.034,45.3315 343.5,45.5C 345.834,44.8763 348.167,44.043 350.5,43C 353.482,42.502 356.482,42.3354 359.5,42.5 Z"/></g>
<g><path style="opacity:1" fill="#ffeb9e" d="M 460.5,43.5 C 462.833,43.5 465.167,43.5 467.5,43.5C 470.33,43.9628 472.997,44.6295 475.5,45.5C 470.29,45.3916 465.29,44.7249 460.5,43.5 Z"/></g>
<g><path style="opacity:1" fill="#fdf0c1" d="M 487.5,48.5 C 491.971,47.9106 495.971,48.5772 499.5,50.5C 497.5,50.5 495.5,50.5 493.5,50.5C 491.5,49.8333 489.5,49.1667 487.5,48.5 Z"/></g>
<g><path style="opacity:1" fill="#f7d354" d="M 343.5,46.5 C 342.122,47.2344 340.622,47.9011 339,48.5C 338.5,86.8319 338.333,125.165 338.5,163.5C 343.294,162.903 347.627,163.57 351.5,165.5C 346.833,165.5 342.167,165.5 337.5,165.5C 337.333,126.165 337.5,86.8319 338,47.5C 339.699,46.5939 341.533,46.2606 343.5,46.5 Z"/></g>
<g><path style="opacity:1" fill="#f6cb3c" d="M 493.5,50.5 C 495.5,50.5 497.5,50.5 499.5,50.5C 503.611,52.178 507.611,53.8447 511.5,55.5C 507.476,55.0522 503.476,54.3855 499.5,53.5C 497.025,53.0358 495.025,52.0358 493.5,50.5 Z"/></g>
<g><path style="opacity:1" fill="#ffeacd" d="M 314.5,164.5 C 314.5,127.5 314.5,90.5 314.5,53.5C 312.901,53.2322 311.568,53.5655 310.5,54.5C 305.232,55.0659 300.232,56.3993 295.5,58.5C 295.574,56.5891 296.574,55.4224 298.5,55C 304.365,53.1891 310.365,52.3558 316.5,52.5C 317.16,90.1816 316.494,127.515 314.5,164.5 Z"/></g>
<g><path style="opacity:1" fill="#f39022" d="M 310.5,54.5 C 311.5,54.5 312.5,54.5 313.5,54.5C 313.5,90.8333 313.5,127.167 313.5,163.5C 309.5,163.5 305.5,163.5 301.5,163.5C 304.962,162.518 308.629,162.185 312.5,162.5C 312.667,126.832 312.5,91.1651 312,55.5C 306.486,56.7534 300.986,58.0867 295.5,59.5C 295.5,59.1667 295.5,58.8333 295.5,58.5C 300.232,56.3993 305.232,55.0659 310.5,54.5 Z"/></g>
<g><path style="opacity:1" fill="#fd8b0b" d="M 301.5,163.5 C 301.5,164.167 301.5,164.833 301.5,165.5C 295.596,165.321 289.929,165.988 284.5,167.5C 284.5,167.833 284.5,168.167 284.5,168.5C 274.285,170.261 264.118,172.594 254,175.5C 252.624,175.684 251.791,176.351 251.5,177.5C 249.901,177.232 248.568,177.566 247.5,178.5C 244.607,178.031 242.607,179.031 241.5,181.5C 237.277,182.241 233.277,183.574 229.5,185.5C 226.513,185.998 223.513,186.498 220.5,187C 219.692,188.706 218.359,189.539 216.5,189.5C 216.473,191.199 215.806,192.533 214.5,193.5C 214.5,193.833 214.5,194.167 214.5,194.5C 210.701,195.015 207.701,196.681 205.5,199.5C 202.497,201.504 199.497,203.504 196.5,205.5C 189.983,209.002 183.983,213.335 178.5,218.5C 176.076,218.808 173.743,218.474 171.5,217.5C 168.705,214.026 165.372,211.359 161.5,209.5C 161.719,208.325 161.386,207.325 160.5,206.5C 151.432,197.264 142.266,188.264 133,179.5C 132.517,178.552 132.351,177.552 132.5,176.5C 135.471,174.557 137.471,171.891 138.5,168.5C 141.845,167.93 143.678,165.93 144,162.5C 155.7,149.634 167.866,137.301 180.5,125.5C 182.571,124.109 184.238,122.276 185.5,120C 193.005,115.607 200.005,110.773 206.5,105.5C 210.006,103.522 213.673,101.689 217.5,100C 218.823,99.1841 219.489,98.0174 219.5,96.5C 222.441,95.1802 225.441,93.8469 228.5,92.5C 229.298,92.0431 229.631,91.3764 229.5,90.5C 230.545,89.1224 231.878,88.1224 233.5,87.5C 237.803,87.2588 241.803,86.0921 245.5,84C 247.444,81.3705 249.777,79.2039 252.5,77.5C 253.659,75.7497 255.326,74.7497 257.5,74.5C 259.819,74.0075 261.819,73.0075 263.5,71.5C 269.472,71.627 274.472,69.627 278.5,65.5C 281.063,64.9117 283.396,63.9117 285.5,62.5C 287.898,62.7406 289.898,62.0739 291.5,60.5C 292.568,59.5655 293.901,59.2322 295.5,59.5C 300.986,58.0867 306.486,56.7534 312,55.5C 312.5,91.1651 312.667,126.832 312.5,162.5C 308.629,162.185 304.962,162.518 301.5,163.5 Z"/></g>
<g><path style="opacity:1" fill="#f3ae60" d="M 291.5,60.5 C 289.898,62.0739 287.898,62.7406 285.5,62.5C 287.102,60.9261 289.102,60.2594 291.5,60.5 Z"/></g>
<g><path style="opacity:1" fill="#f7ce49" d="M 523.5,59.5 C 527.5,60.1667 531.5,60.8333 535.5,61.5C 536.687,63.9754 538.687,64.9754 541.5,64.5C 541.5,64.8333 541.5,65.1667 541.5,65.5C 535.744,65.0189 530.244,63.6856 525,61.5C 523.97,61.1639 523.47,60.4972 523.5,59.5 Z"/></g>
<g><path style="opacity:1" fill="#eaa24e" d="M 310.5,54.5 C 311.568,53.5655 312.901,53.2322 314.5,53.5C 314.5,90.5 314.5,127.5 314.5,164.5C 310.366,165.485 306.032,165.818 301.5,165.5C 301.5,164.833 301.5,164.167 301.5,163.5C 305.5,163.5 309.5,163.5 313.5,163.5C 313.5,127.167 313.5,90.8333 313.5,54.5C 312.5,54.5 311.5,54.5 310.5,54.5 Z"/></g>
<g><path style="opacity:1" fill="#fef2c1" d="M 535.5,61.5 C 537.544,62.5082 539.544,63.5082 541.5,64.5C 538.687,64.9754 536.687,63.9754 535.5,61.5 Z"/></g>
<g><path style="opacity:1" fill="#f3bd7e" d="M 285.5,62.5 C 283.396,63.9117 281.063,64.9117 278.5,65.5C 280.185,63.1824 282.519,62.1824 285.5,62.5 Z"/></g>
<g><path style="opacity:1" fill="#f49e40" d="M 278.5,65.5 C 274.472,69.627 269.472,71.627 263.5,71.5C 268.34,69.2521 273.34,67.2521 278.5,65.5 Z"/></g>
<g><path style="opacity:1" fill="#f7cc3c" d="M 541.5,65.5 C 546.863,67.5188 552.196,69.5188 557.5,71.5C 559.482,74.1367 562.148,75.47 565.5,75.5C 565.5,75.8333 565.5,76.1667 565.5,76.5C 568.978,78.2103 572.312,80.2103 575.5,82.5C 574.127,82.6567 572.793,82.49 571.5,82C 565.176,78.0278 558.509,74.5278 551.5,71.5C 546.863,71.5053 543.53,69.5053 541.5,65.5 Z"/></g>
<g><path style="opacity:1" fill="#fbd099" d="M 263.5,71.5 C 261.819,73.0075 259.819,74.0075 257.5,74.5C 258.911,72.461 260.911,71.461 263.5,71.5 Z"/></g>
<g><path style="opacity:1" fill="#fcf2cf" d="M 557.5,71.5 C 560.953,71.5374 563.619,72.8707 565.5,75.5C 562.148,75.47 559.482,74.1367 557.5,71.5 Z"/></g>
<g><path style="opacity:1" fill="#fcf1c8" d="M 565.5,76.5 C 572.253,76.5056 577.586,79.1723 581.5,84.5C 579.421,84.0293 577.421,83.3627 575.5,82.5C 572.312,80.2103 568.978,78.2103 565.5,76.5 Z"/></g>
<g><path style="opacity:1" fill="#f59b39" d="M 252.5,77.5 C 249.777,79.2039 247.444,81.3705 245.5,84C 241.803,86.0921 237.803,87.2588 233.5,87.5C 233.5,87.1667 233.5,86.8333 233.5,86.5C 239.056,84.7199 244.056,81.8866 248.5,78C 249.793,77.51 251.127,77.3433 252.5,77.5 Z"/></g>
<g><path style="opacity:1" fill="#fef1c4" d="M 581.5,84.5 C 585.38,85.2979 589.046,86.7979 592.5,89C 594.234,90.7342 596.234,92.0676 598.5,93C 599.252,93.6708 599.586,94.5041 599.5,95.5C 594.305,92.4028 588.972,89.5694 583.5,87C 582.619,86.2917 581.953,85.4584 581.5,84.5 Z"/></g>
<g><path style="opacity:1" fill="#fee8ca" d="M 233.5,86.5 C 233.5,86.8333 233.5,87.1667 233.5,87.5C 231.878,88.1224 230.545,89.1224 229.5,90.5C 227.716,90.8925 226.05,91.5592 224.5,92.5C 224.721,91.2652 225.388,90.2652 226.5,89.5C 228.758,88.201 231.092,87.201 233.5,86.5 Z"/></g>
<g><path style="opacity:1" fill="#f19e43" d="M 229.5,90.5 C 229.631,91.3764 229.298,92.0431 228.5,92.5C 225.441,93.8469 222.441,95.1802 219.5,96.5C 220.579,94.457 222.246,93.1237 224.5,92.5C 226.05,91.5592 227.716,90.8925 229.5,90.5 Z"/></g>
<g><path style="opacity:1" fill="#feedae" d="M 599.5,95.5 C 600.649,95.7911 601.316,96.6244 601.5,98C 600.312,100.794 598.312,102.961 595.5,104.5C 596.085,102.078 597.585,100.411 600,99.5C 600.579,98.0715 600.412,96.7382 599.5,95.5 Z"/></g>
<g><path style="opacity:1" fill="#f29b3c" d="M 219.5,96.5 C 219.489,98.0174 218.823,99.1841 217.5,100C 213.673,101.689 210.006,103.522 206.5,105.5C 207.29,104.206 208.29,103.039 209.5,102C 212.994,100.311 216.328,98.4775 219.5,96.5 Z"/></g>
<g><path style="opacity:1" fill="#c2edd5" d="M 640.5,126.5 C 635.432,123.935 631.099,120.435 627.5,116C 625.382,115.74 623.716,114.74 622.5,113C 620.866,112.506 619.199,112.34 617.5,112.5C 617.866,111.305 618.699,110.639 620,110.5C 622.111,111.472 624.278,112.305 626.5,113C 631.286,117.436 635.953,121.936 640.5,126.5 Z"/></g>
<g><path style="opacity:1" fill="#02a54f" d="M 617.5,112.5 C 619.199,112.34 620.866,112.506 622.5,113C 623.716,114.74 625.382,115.74 627.5,116C 631.099,120.435 635.432,123.935 640.5,126.5C 641.833,128.5 643.5,130.167 645.5,131.5C 649.833,136.5 654.5,141.167 659.5,145.5C 683.437,169.046 702.77,195.712 717.5,225.5C 718.724,232.01 721.39,237.843 725.5,243C 726.085,247.674 728.085,251.508 731.5,254.5C 731.5,254.833 731.5,255.167 731.5,255.5C 732.453,260.259 733.62,264.926 735,269.5C 736.049,272.187 737.549,274.52 739.5,276.5C 740.349,278.888 741.349,281.221 742.5,283.5C 743.866,286.961 744.866,290.627 745.5,294.5C 745.721,297.067 746.388,299.401 747.5,301.5C 747.18,310.067 748.847,318.067 752.5,325.5C 752.271,335.105 753.271,344.439 755.5,353.5C 755.833,353.5 756.167,353.5 756.5,353.5C 756.5,361.167 756.5,368.833 756.5,376.5C 688.167,376.5 619.833,376.5 551.5,376.5C 551.802,373.941 551.468,371.607 550.5,369.5C 550.666,363.158 550.5,356.825 550,350.5C 549.257,347.808 548.09,345.475 546.5,343.5C 544.982,336.701 542.982,330.035 540.5,323.5C 538.664,314.985 535.664,306.985 531.5,299.5C 531.657,298.127 531.49,296.793 531,295.5C 526,286.167 521,276.833 516,267.5C 513.636,264.31 511.136,261.31 508.5,258.5C 506.823,255.975 505.323,253.309 504,250.5C 502.629,248.959 501.129,247.625 499.5,246.5C 498.287,243.775 496.454,241.441 494,239.5C 493.333,238.167 493.333,236.833 494,235.5C 498.702,230.63 503.535,225.963 508.5,221.5C 511.167,220.833 512.833,219.167 513.5,216.5C 529.5,199.833 545.833,183.5 562.5,167.5C 565.167,166.833 566.833,165.167 567.5,162.5C 570.167,159.167 573.167,156.167 576.5,153.5C 579.167,152.833 580.833,151.167 581.5,148.5C 585.5,143.833 589.833,139.5 594.5,135.5C 597.167,134.833 598.833,133.167 599.5,130.5C 603.5,125.833 607.833,121.5 612.5,117.5C 615.167,116.833 616.833,115.167 617.5,112.5 Z"/></g>
<g><path style="opacity:1" fill="#54b682" d="M 617.5,112.5 C 616.833,115.167 615.167,116.833 612.5,117.5C 613.833,115.5 615.5,113.833 617.5,112.5 Z"/></g>
<g><path style="opacity:1" fill="#fce48b" d="M 595.5,104.5 C 585.167,115.5 574.5,126.167 563.5,136.5C 563.369,135.761 563.536,135.094 564,134.5C 574.087,123.909 584.587,113.909 595.5,104.5 Z"/></g>
<g><path style="opacity:1" fill="#54b782" d="M 599.5,130.5 C 598.833,133.167 597.167,134.833 594.5,135.5C 595.833,133.5 597.5,131.833 599.5,130.5 Z"/></g>
<g><path style="opacity:1" fill="#c1efd6" d="M 645.5,131.5 C 646.583,131.539 647.583,131.873 648.5,132.5C 652.588,136.579 656.255,140.912 659.5,145.5C 654.5,141.167 649.833,136.5 645.5,131.5 Z"/></g>
<g><path style="opacity:1" fill="#fce48b" d="M 563.5,136.5 C 555.167,145.5 546.5,154.167 537.5,162.5C 537.369,161.761 537.536,161.094 538,160.5C 546.088,151.907 554.588,143.907 563.5,136.5 Z"/></g>
<g><path style="opacity:1" fill="#59b985" d="M 581.5,148.5 C 580.833,151.167 579.167,152.833 576.5,153.5C 577.833,151.5 579.5,149.833 581.5,148.5 Z"/></g>
<g><path style="opacity:1" fill="#f5b671" d="M 180.5,125.5 C 167.866,137.301 155.7,149.634 144,162.5C 143.678,165.93 141.845,167.93 138.5,168.5C 150.381,152.284 164.381,137.95 180.5,125.5 Z"/></g>
<g><path style="opacity:1" fill="#f3b165" d="M 301.5,165.5 C 296.04,166.737 290.373,167.404 284.5,167.5C 289.929,165.988 295.596,165.321 301.5,165.5 Z"/></g>
<g><path style="opacity:1" fill="#f6d664" d="M 351.5,165.5 C 357.084,165.255 362.417,165.922 367.5,167.5C 361.966,167.332 356.633,166.665 351.5,165.5 Z"/></g>
<g><path style="opacity:1" fill="#55b782" d="M 567.5,162.5 C 566.833,165.167 565.167,166.833 562.5,167.5C 563.833,165.5 565.5,163.833 567.5,162.5 Z"/></g>
<g><path style="opacity:1" fill="#fdf5d8" d="M 337.5,165.5 C 342.167,165.5 346.833,165.5 351.5,165.5C 356.633,166.665 361.966,167.332 367.5,167.5C 367.5,167.833 367.5,168.167 367.5,168.5C 357.265,168.45 347.265,167.45 337.5,165.5 Z"/></g>
<g><path style="opacity:1" fill="#fef0bc" d="M 367.5,168.5 C 371.764,168.344 375.764,169.011 379.5,170.5C 379.5,170.833 379.5,171.167 379.5,171.5C 375.837,171.048 372.17,170.548 368.5,170C 367.944,169.617 367.611,169.117 367.5,168.5 Z"/></g>
<g><path style="opacity:1" fill="#f7cc3d" d="M 379.5,171.5 C 379.5,171.167 379.5,170.833 379.5,170.5C 387.063,170.854 394.396,172.354 401.5,175C 402.381,175.708 403.047,176.542 403.5,177.5C 402.833,177.5 402.167,177.5 401.5,177.5C 401.389,176.883 401.056,176.383 400.5,176C 398.19,175.503 395.857,175.337 393.5,175.5C 389.435,172.82 384.768,171.487 379.5,171.5 Z"/></g>
<g><path style="opacity:1" fill="#fdf3cd" d="M 379.5,171.5 C 384.768,171.487 389.435,172.82 393.5,175.5C 388.4,175.289 383.734,173.955 379.5,171.5 Z"/></g>
<g><path style="opacity:1" fill="#fee8cd" d="M 284.5,168.5 C 274.05,172.822 263.05,175.822 251.5,177.5C 251.791,176.351 252.624,175.684 254,175.5C 264.118,172.594 274.285,170.261 284.5,168.5 Z"/></g>
<g><path style="opacity:1" fill="#efaa5d" d="M 138.5,168.5 C 137.471,171.891 135.471,174.557 132.5,176.5C 134.016,173.467 136.016,170.8 138.5,168.5 Z"/></g>
<g><path style="opacity:1" fill="#fce48b" d="M 537.5,162.5 C 518.5,182.167 499.167,201.5 479.5,220.5C 479.369,219.761 479.536,219.094 480,218.5C 498.752,199.246 517.918,180.58 537.5,162.5 Z"/></g>
<g><path style="opacity:1" fill="#fdedb5" d="M 393.5,175.5 C 395.857,175.337 398.19,175.503 400.5,176C 401.056,176.383 401.389,176.883 401.5,177.5C 398.572,177.435 395.905,176.768 393.5,175.5 Z"/></g>
<g><path style="opacity:1" fill="#fcd5a5" d="M 247.5,178.5 C 245.819,180.008 243.819,181.008 241.5,181.5C 242.607,179.031 244.607,178.031 247.5,178.5 Z"/></g>
<g><path style="opacity:1" fill="#fcf3d4" d="M 401.5,177.5 C 402.167,177.5 402.833,177.5 403.5,177.5C 408.074,180.243 413.074,182.243 418.5,183.5C 418.5,183.833 418.5,184.167 418.5,184.5C 411.755,184.417 406.088,182.083 401.5,177.5 Z"/></g>
<g><path style="opacity:1" fill="#f8d14d" d="M 418.5,184.5 C 418.5,184.167 418.5,183.833 418.5,183.5C 421.953,183.537 424.619,184.871 426.5,187.5C 425.833,187.5 425.167,187.5 424.5,187.5C 422.517,186.529 420.517,185.529 418.5,184.5 Z"/></g>
<g><path style="opacity:1" fill="#fee9cc" d="M 241.5,181.5 C 237.93,184.067 233.93,185.733 229.5,186.5C 229.5,186.167 229.5,185.833 229.5,185.5C 233.277,183.574 237.277,182.241 241.5,181.5 Z"/></g>
<g><path style="opacity:1" fill="#ed9e4c" d="M 132.5,176.5 C 132.351,177.552 132.517,178.552 133,179.5C 142.266,188.264 151.432,197.264 160.5,206.5C 161.386,207.325 161.719,208.325 161.5,209.5C 151.481,199.981 141.648,190.314 132,180.5C 131.235,178.934 131.402,177.601 132.5,176.5 Z"/></g>
<g><path style="opacity:1" fill="#f6a045" d="M 229.5,185.5 C 229.5,185.833 229.5,186.167 229.5,186.5C 224.368,188.65 219.368,190.983 214.5,193.5C 215.806,192.533 216.473,191.199 216.5,189.5C 218.359,189.539 219.692,188.706 220.5,187C 223.513,186.498 226.513,185.998 229.5,185.5 Z"/></g>
<g><path style="opacity:1" fill="#fdf1ca" d="M 424.5,187.5 C 425.167,187.5 425.833,187.5 426.5,187.5C 429.074,189.024 431.741,190.358 434.5,191.5C 435.306,192.728 436.306,193.728 437.5,194.5C 433.314,193.411 429.314,191.744 425.5,189.5C 425.137,188.817 424.804,188.15 424.5,187.5 Z"/></g>
<g><path style="opacity:1" fill="#f9d04c" d="M 434.5,191.5 C 435.873,191.343 437.207,191.51 438.5,192C 440.089,193.745 442.089,194.912 444.5,195.5C 445.18,196.86 445.847,198.193 446.5,199.5C 443.366,198.099 440.366,196.432 437.5,194.5C 436.306,193.728 435.306,192.728 434.5,191.5 Z"/></g>
<g><path style="opacity:1" fill="#fde8ce" d="M 214.5,194.5 C 212.476,197.773 209.476,199.44 205.5,199.5C 207.701,196.681 210.701,195.015 214.5,194.5 Z"/></g>
<g><path style="opacity:1" fill="#cc4234" d="M 120.5,199.5 C 118.486,199.392 116.82,200.058 115.5,201.5C 116.412,197.531 118.079,196.864 120.5,199.5 Z"/></g>
<g><path style="opacity:1" fill="#d90301" d="M 120.5,199.5 C 123.833,202.5 127.167,205.5 130.5,208.5C 130.525,211.179 131.858,212.512 134.5,212.5C 135.072,214.255 135.906,215.922 137,217.5C 140.699,221.036 144.533,224.369 148.5,227.5C 149.239,227.369 149.906,227.536 150.5,228C 153.701,230.702 156.368,233.869 158.5,237.5C 157.908,239.423 156.908,241.089 155.5,242.5C 152.129,245.871 149.129,249.537 146.5,253.5C 145.662,253.842 145.328,254.508 145.5,255.5C 142.551,257.373 140.551,260.039 139.5,263.5C 138.143,264.59 137.143,265.924 136.5,267.5C 134.896,268.287 134.229,269.62 134.5,271.5C 131.956,272.708 130.622,274.708 130.5,277.5C 129.508,279.456 128.508,281.456 127.5,283.5C 126.094,283.973 125.427,284.973 125.5,286.5C 124.313,288.072 123.313,289.739 122.5,291.5C 121.141,292.007 120.141,293.007 119.5,294.5C 116.655,299.508 114.989,304.842 114.5,310.5C 111.49,320.595 108.49,330.595 105.5,340.5C 102.954,348.499 101.954,356.832 102.5,365.5C 102.167,365.5 101.833,365.5 101.5,365.5C 100.518,368.962 100.185,372.629 100.5,376.5C 87.8333,376.5 75.1667,376.5 62.5,376.5C 62.5,369.167 62.5,361.833 62.5,354.5C 63.1667,354.5 63.5,354.167 63.5,353.5C 66.3958,342.584 67.7292,331.25 67.5,319.5C 68.9829,311.096 70.9829,302.762 73.5,294.5C 74.1174,294.389 74.6174,294.056 75,293.5C 75.4955,291.527 75.6621,289.527 75.5,287.5C 76.9238,285.485 77.5905,283.152 77.5,280.5C 78.1667,280.5 78.5,280.167 78.5,279.5C 80.1361,278.251 81.3028,276.584 82,274.5C 83.4785,270.234 84.6451,265.901 85.5,261.5C 85.8333,259.5 86.1667,257.5 86.5,255.5C 87.404,254.791 87.7373,253.791 87.5,252.5C 88.1667,251.5 88.8333,250.5 89.5,249.5C 90.6737,248.486 91.3404,247.153 91.5,245.5C 94.7414,243.017 96.4081,239.684 96.5,235.5C 96.5,234.5 96.5,233.5 96.5,232.5C 99.6779,228.146 102.345,223.48 104.5,218.5C 106.811,214.848 109.145,211.181 111.5,207.5C 113.326,205.853 114.66,203.853 115.5,201.5C 116.82,200.058 118.486,199.392 120.5,199.5 Z"/></g>
<g><path style="opacity:1" fill="#f7d051" d="M 447.5,199.5 C 451.615,199.62 454.281,201.62 455.5,205.5C 452.467,203.984 449.8,201.984 447.5,199.5 Z"/></g>
<g><path style="opacity:1" fill="#e57269" d="M 115.5,201.5 C 114.66,203.853 113.326,205.853 111.5,207.5C 111.845,204.802 113.178,202.802 115.5,201.5 Z"/></g>
<g><path style="opacity:1" fill="#d44535" d="M 130.5,208.5 C 132.167,209.5 133.5,210.833 134.5,212.5C 131.858,212.512 130.525,211.179 130.5,208.5 Z"/></g>
<g><path style="opacity:1" fill="#feeeb3" d="M 455.5,206.5 C 460.167,209.5 464.833,212.5 469.5,215.5C 469.5,215.833 469.5,216.167 469.5,216.5C 464.118,214.059 459.451,210.725 455.5,206.5 Z"/></g>
<g><path style="opacity:1" fill="#f8d96f" d="M 469.5,216.5 C 469.5,216.167 469.5,215.833 469.5,215.5C 472.5,216.5 474.5,218.5 475.5,221.5C 473.5,219.833 471.5,218.167 469.5,216.5 Z"/></g>
<g><path style="opacity:1" fill="#d34333" d="M 134.5,212.5 C 137.374,215.949 140.707,218.949 144.5,221.5C 146.226,223.228 147.559,225.228 148.5,227.5C 144.533,224.369 140.699,221.036 137,217.5C 135.906,215.922 135.072,214.255 134.5,212.5 Z"/></g>
<g><path style="opacity:1" fill="#fedeb7" d="M 196.5,205.5 C 195.233,209.257 192.566,211.424 188.5,212C 184.606,215.404 180.606,218.571 176.5,221.5C 177.167,220.5 177.833,219.5 178.5,218.5C 183.983,213.335 189.983,209.002 196.5,205.5 Z"/></g>
<g><path style="opacity:1" fill="#ef9739" d="M 161.5,209.5 C 165.372,211.359 168.705,214.026 171.5,217.5C 173.743,218.474 176.076,218.808 178.5,218.5C 177.833,219.5 177.167,220.5 176.5,221.5C 175.127,221.657 173.793,221.49 172.5,221C 168.63,217.298 164.963,213.464 161.5,209.5 Z"/></g>
<g><path style="opacity:1" fill="#59ba86" d="M 513.5,216.5 C 512.833,219.167 511.167,220.833 508.5,221.5C 509.833,219.5 511.5,217.833 513.5,216.5 Z"/></g>
<g><path style="opacity:1" fill="#ffd7d3" d="M 104.5,218.5 C 102.345,223.48 99.6779,228.146 96.5,232.5C 97.5842,226.879 100.251,222.212 104.5,218.5 Z"/></g>
<g><path style="opacity:1" fill="#fddbd5" d="M 144.5,221.5 C 145.583,221.539 146.583,221.873 147.5,222.5C 151.182,226.567 154.848,230.567 158.5,234.5C 160.42,238.444 159.42,241.11 155.5,242.5C 156.908,241.089 157.908,239.423 158.5,237.5C 156.368,233.869 153.701,230.702 150.5,228C 149.906,227.536 149.239,227.369 148.5,227.5C 147.559,225.228 146.226,223.228 144.5,221.5 Z"/></g>
<g><path style="opacity:1" fill="#33a966" d="M 717.5,225.5 C 720.687,230.406 723.687,235.406 726.5,240.5C 726.711,244.182 728.044,247.182 730.5,249.5C 730.629,251.216 730.962,252.883 731.5,254.5C 728.085,251.508 726.085,247.674 725.5,243C 721.39,237.843 718.724,232.01 717.5,225.5 Z"/></g>
<g><path style="opacity:1" fill="#d0322a" d="M 95.5,235.5 C 95.8333,235.5 96.1667,235.5 96.5,235.5C 96.4081,239.684 94.7414,243.017 91.5,245.5C 91.5,245.167 91.5,244.833 91.5,244.5C 93.2125,241.706 94.5459,238.706 95.5,235.5 Z"/></g>
<g><path style="opacity:1" fill="#fee1e0" d="M 95.5,235.5 C 94.5459,238.706 93.2125,241.706 91.5,244.5C 90.0687,245.78 89.4021,247.447 89.5,249.5C 88.8333,250.5 88.1667,251.5 87.5,252.5C 88.6623,246.677 90.3289,241.01 92.5,235.5C 93.5,235.5 94.5,235.5 95.5,235.5 Z"/></g>
<g><path style="opacity:1" fill="#cef3df" d="M 726.5,240.5 C 728.611,243.063 729.944,246.063 730.5,249.5C 728.044,247.182 726.711,244.182 726.5,240.5 Z"/></g>
<g><path style="opacity:1" fill="#f59190" d="M 91.5,244.5 C 91.5,244.833 91.5,245.167 91.5,245.5C 91.3404,247.153 90.6737,248.486 89.5,249.5C 89.4021,247.447 90.0687,245.78 91.5,244.5 Z"/></g>
<g><path style="opacity:1" fill="#fab9b3" d="M 155.5,242.5 C 153.628,247.043 150.628,250.71 146.5,253.5C 149.129,249.537 152.129,245.871 155.5,242.5 Z"/></g>
<g><path style="opacity:1" fill="#cdf4de" d="M 499.5,246.5 C 501.129,247.625 502.629,248.959 504,250.5C 505.323,253.309 506.823,255.975 508.5,258.5C 504.042,255.579 501.042,251.579 499.5,246.5 Z"/></g>
<g><path style="opacity:1" fill="#caf2dd" d="M 730.5,249.5 C 734.188,255.194 736.521,261.528 737.5,268.5C 735.512,264.173 733.512,259.84 731.5,255.5C 731.5,255.167 731.5,254.833 731.5,254.5C 730.962,252.883 730.629,251.216 730.5,249.5 Z"/></g>
<g><path style="opacity:1" fill="#fbc0bf" d="M 86.5,255.5 C 86.1667,257.5 85.8333,259.5 85.5,261.5C 84.8333,261.833 84.1667,262.167 83.5,262.5C 83.2733,259.562 84.2733,257.229 86.5,255.5 Z"/></g>
<g><path style="opacity:1" fill="#fcccc8" d="M 145.5,255.5 C 145.395,259.603 143.395,262.27 139.5,263.5C 140.551,260.039 142.551,257.373 145.5,255.5 Z"/></g>
<g><path style="opacity:1" fill="#fccccc" d="M 83.5,262.5 C 82.8699,266.048 81.8699,269.381 80.5,272.5C 80.3359,269.813 80.5026,267.146 81,264.5C 81.4169,263.244 82.2502,262.577 83.5,262.5 Z"/></g>
<g><path style="opacity:1" fill="#f78f8b" d="M 136.5,267.5 C 136.34,269.153 135.674,270.486 134.5,271.5C 134.229,269.62 134.896,268.287 136.5,267.5 Z"/></g>
<g><path style="opacity:1" fill="#2ca664" d="M 731.5,255.5 C 733.512,259.84 735.512,264.173 737.5,268.5C 738.167,271.167 738.833,273.833 739.5,276.5C 737.549,274.52 736.049,272.187 735,269.5C 733.62,264.926 732.453,260.259 731.5,255.5 Z"/></g>
<g><path style="opacity:1" fill="#c4f0d9" d="M 737.5,268.5 C 739.584,270.776 741.084,273.443 742,276.5C 742.497,278.81 742.663,281.143 742.5,283.5C 741.349,281.221 740.349,278.888 739.5,276.5C 738.833,273.833 738.167,271.167 737.5,268.5 Z"/></g>
<g><path style="opacity:1" fill="#cc241d" d="M 85.5,261.5 C 84.6451,265.901 83.4785,270.234 82,274.5C 81.3028,276.584 80.1361,278.251 78.5,279.5C 78.7215,276.933 79.3882,274.599 80.5,272.5C 81.8699,269.381 82.8699,266.048 83.5,262.5C 84.1667,262.167 84.8333,261.833 85.5,261.5 Z"/></g>
<g><path style="opacity:1" fill="#ed7c76" d="M 134.5,271.5 C 133.551,273.777 132.218,275.777 130.5,277.5C 130.622,274.708 131.956,272.708 134.5,271.5 Z"/></g>
<g><path style="opacity:1" fill="#4f4f4f" d="M 337.5,404.5 C 326.231,406.746 314.898,407.079 303.5,405.5C 291.386,401.392 282.719,393.392 277.5,381.5C 276.167,373.167 276.167,364.833 277.5,356.5C 280.032,349.104 283.865,342.438 289,336.5C 300.175,325.826 313.342,318.66 328.5,315C 339.175,312.886 349.508,310.053 359.5,306.5C 362.829,306.785 365.829,306.118 368.5,304.5C 369.568,303.566 370.901,303.232 372.5,303.5C 376.479,303.258 380.146,302.258 383.5,300.5C 384.568,299.566 385.901,299.232 387.5,299.5C 391.479,299.258 395.146,298.258 398.5,296.5C 401.789,295.626 405.123,294.959 408.5,294.5C 412.479,294.258 416.146,293.258 419.5,291.5C 422.763,290.518 426.097,289.851 429.5,289.5C 431.898,289.741 433.898,289.074 435.5,287.5C 438.833,286.833 442.167,286.167 445.5,285.5C 449.479,285.258 453.146,284.258 456.5,282.5C 458.717,281.631 461.05,281.298 463.5,281.5C 467.083,280.993 470.417,279.993 473.5,278.5C 477.792,277.406 482.126,276.906 486.5,277C 449.734,312.771 412.067,347.438 373.5,381C 365.5,387 357.5,393 349.5,399C 345.549,401.145 341.549,402.979 337.5,404.5 Z"/></g>
<g><path style="opacity:1" fill="#b2b2b2" d="M 473.5,278.5 C 470.417,279.993 467.083,280.993 463.5,281.5C 463.611,280.883 463.944,280.383 464.5,280C 467.478,279.304 470.478,278.804 473.5,278.5 Z"/></g>
<g><path style="opacity:1" fill="#acacac" d="M 456.5,282.5 C 453.146,284.258 449.479,285.258 445.5,285.5C 448.809,283.63 452.475,282.63 456.5,282.5 Z"/></g>
<g><path style="opacity:1" fill="#ef8a89" d="M 77.5,280.5 C 77.5905,283.152 76.9238,285.485 75.5,287.5C 75.4095,284.848 76.0762,282.515 77.5,280.5 Z"/></g>
<g><path style="opacity:1" fill="#fedad7" d="M 130.5,277.5 C 130.662,279.527 130.495,281.527 130,283.5C 127.339,287.568 124.839,291.568 122.5,295.5C 122.5,294.5 122.5,293.5 122.5,292.5C 122.5,292.167 122.5,291.833 122.5,291.5C 123.313,289.739 124.313,288.072 125.5,286.5C 126.906,286.027 127.573,285.027 127.5,283.5C 128.508,281.456 129.508,279.456 130.5,277.5 Z"/></g>
<g><path style="opacity:1" fill="#ed928f" d="M 127.5,283.5 C 127.573,285.027 126.906,286.027 125.5,286.5C 125.427,284.973 126.094,283.973 127.5,283.5 Z"/></g>
<g><path style="opacity:1" fill="#919191" d="M 435.5,287.5 C 433.898,289.074 431.898,289.741 429.5,289.5C 431.102,287.926 433.102,287.259 435.5,287.5 Z"/></g>
<g><path style="opacity:1" fill="#d05855" d="M 75.5,287.5 C 75.6621,289.527 75.4955,291.527 75,293.5C 74.6174,294.056 74.1174,294.389 73.5,294.5C 73.9267,291.99 74.5933,289.657 75.5,287.5 Z"/></g>
<g><path style="opacity:1" fill="#9f9f9f" d="M 419.5,291.5 C 416.146,293.258 412.479,294.258 408.5,294.5C 411.809,292.63 415.475,291.63 419.5,291.5 Z"/></g>
<g><path style="opacity:1" fill="#b0b0b0" d="M 398.5,296.5 C 395.146,298.258 391.479,299.258 387.5,299.5C 390.809,297.63 394.475,296.63 398.5,296.5 Z"/></g>
<g><path style="opacity:1" fill="#f7a4a1" d="M 122.5,292.5 C 122.5,293.5 122.5,294.5 122.5,295.5C 121.974,297.23 120.974,298.564 119.5,299.5C 120.264,296.982 121.264,294.649 122.5,292.5 Z"/></g>
<g><path style="opacity:1" fill="#93deb8" d="M 745.5,294.5 C 747.163,296.438 747.829,298.772 747.5,301.5C 746.388,299.401 745.721,297.067 745.5,294.5 Z"/></g>
<g><path style="opacity:1" fill="#cf2b22" d="M 122.5,291.5 C 122.5,291.833 122.5,292.167 122.5,292.5C 121.264,294.649 120.264,296.982 119.5,299.5C 118.154,303.207 116.821,306.874 115.5,310.5C 115.167,310.5 114.833,310.5 114.5,310.5C 114.989,304.842 116.655,299.508 119.5,294.5C 120.141,293.007 121.141,292.007 122.5,291.5 Z"/></g>
<g><path style="opacity:1" fill="#a0a0a0" d="M 383.5,300.5 C 380.146,302.258 376.479,303.258 372.5,303.5C 375.809,301.63 379.475,300.63 383.5,300.5 Z"/></g>
<g><path style="opacity:1" fill="#9d9d9d" d="M 368.5,304.5 C 365.829,306.118 362.829,306.785 359.5,306.5C 362.273,305.343 365.273,304.676 368.5,304.5 Z"/></g>
<g><path style="opacity:1" fill="#d2f4e1" d="M 531.5,299.5 C 535.664,306.985 538.664,314.985 540.5,323.5C 535.869,316.19 532.869,308.19 531.5,299.5 Z"/></g>
<g><path style="opacity:1" fill="#54b77f" d="M 747.5,301.5 C 750.074,309.176 751.74,317.176 752.5,325.5C 748.847,318.067 747.18,310.067 747.5,301.5 Z"/></g>
<g><path style="opacity:1" fill="#c3f0d8" d="M 753.5,325.5 C 756.226,334.409 757.226,343.742 756.5,353.5C 756.167,353.5 755.833,353.5 755.5,353.5C 755.054,344.15 754.387,334.817 753.5,325.5 Z"/></g>
<g><path style="opacity:1" fill="#cc2f25" d="M 67.5,319.5 C 67.7292,331.25 66.3958,342.584 63.5,353.5C 63.8333,346.833 64.1667,340.167 64.5,333.5C 65.5,328.833 66.5,324.167 67.5,319.5 Z"/></g>
<g><path style="opacity:1" fill="#2ba462" d="M 752.5,325.5 C 752.833,325.5 753.167,325.5 753.5,325.5C 754.387,334.817 755.054,344.15 755.5,353.5C 753.271,344.439 752.271,335.105 752.5,325.5 Z"/></g>
<g><path style="opacity:1" fill="#d84d44" d="M 105.5,340.5 C 104.758,349.005 103.758,357.338 102.5,365.5C 101.954,356.832 102.954,348.499 105.5,340.5 Z"/></g>
<g><path style="opacity:1" fill="#fcd2d1" d="M 114.5,310.5 C 114.833,310.5 115.167,310.5 115.5,310.5C 112,325.816 108.5,341.15 105,356.5C 104.667,363.5 104.333,370.5 104,377.5C 103.329,378.252 102.496,378.586 101.5,378.5C 87.6565,378.829 73.9898,378.496 60.5,377.5C 74.1667,377.5 87.8333,377.5 101.5,377.5C 101.5,373.5 101.5,369.5 101.5,365.5C 101.833,365.5 102.167,365.5 102.5,365.5C 103.758,357.338 104.758,349.005 105.5,340.5C 108.49,330.595 111.49,320.595 114.5,310.5 Z"/></g>
<g><path style="opacity:1" fill="#38aa6b" d="M 546.5,343.5 C 548.09,345.475 549.257,347.808 550,350.5C 550.5,356.825 550.666,363.158 550.5,369.5C 549.833,365.833 549.167,362.167 548.5,358.5C 547.275,353.71 546.608,348.71 546.5,343.5 Z"/></g>
<g><path style="opacity:1" fill="#a8a8a8" d="M 277.5,356.5 C 276.167,364.833 276.167,373.167 277.5,381.5C 276.732,380.737 276.232,379.737 276,378.5C 275.333,372.167 275.333,365.833 276,359.5C 276.232,358.263 276.732,357.263 277.5,356.5 Z"/></g>
<g><path style="opacity:1" fill="#fededd" d="M 64.5,333.5 C 64.1667,340.167 63.8333,346.833 63.5,353.5C 63.5,354.167 63.1667,354.5 62.5,354.5C 61.6037,362 60.9371,369.667 60.5,377.5C 73.9898,378.496 87.6565,378.829 101.5,378.5C 87.4312,379.83 73.2645,379.83 59,378.5C 59.9515,366.319 60.7849,353.986 61.5,341.5C 61.9201,338.384 62.9201,335.717 64.5,333.5 Z"/></g>
<g><path style="opacity:1" fill="#c92f2b" d="M 62.5,354.5 C 62.5,361.833 62.5,369.167 62.5,376.5C 75.1667,376.5 87.8333,376.5 100.5,376.5C 100.185,372.629 100.518,368.962 101.5,365.5C 101.5,369.5 101.5,373.5 101.5,377.5C 87.8333,377.5 74.1667,377.5 60.5,377.5C 60.9371,369.667 61.6037,362 62.5,354.5 Z"/></g>
<g><path style="opacity:1" fill="#2ca466" d="M 756.5,353.5 C 756.833,353.5 757.167,353.5 757.5,353.5C 757.39,361.525 757.724,369.525 758.5,377.5C 689.167,377.5 619.833,377.5 550.5,377.5C 550.5,374.833 550.5,372.167 550.5,369.5C 551.468,371.607 551.802,373.941 551.5,376.5C 619.833,376.5 688.167,376.5 756.5,376.5C 756.5,368.833 756.5,361.167 756.5,353.5 Z"/></g>
<g><path style="opacity:1" fill="#daf3e5" d="M 757.5,353.5 C 758.117,353.611 758.617,353.944 759,354.5C 759.314,361.017 759.814,367.517 760.5,374C 760.561,376.261 759.894,378.261 758.5,380C 689.167,380.667 619.833,380.667 550.5,380C 549.874,379.25 549.374,378.416 549,377.5C 548.5,371.175 548.334,364.842 548.5,358.5C 549.167,362.167 549.833,365.833 550.5,369.5C 550.5,372.167 550.5,374.833 550.5,377.5C 619.833,377.5 689.167,377.5 758.5,377.5C 757.724,369.525 757.39,361.525 757.5,353.5 Z"/></g>
<g><path style="opacity:1" fill="#a0a0a0" d="M 337.5,404.5 C 335.189,406.068 332.522,406.902 329.5,407C 325.833,407.167 322.167,407.333 318.5,407.5C 313.233,407.713 308.233,407.046 303.5,405.5C 314.898,407.079 326.231,406.746 337.5,404.5 Z"/></g>
</svg>
