<svg version="1.1" id="Layer_1" xmlns="http://www.w3.org/2000/svg" xmlns:xlink="http://www.w3.org/1999/xlink" x="0px" y="0px"
	 width="100%" viewBox="0 0 1000 1000" enable-background="new 0 0 1000 1000" xml:space="preserve">
<path fill="#CC8900" opacity="1.000000" stroke="none" 
	d="
M555.000000,1001.000000 
	C370.000000,1001.000000 185.500000,1001.000000 1.000000,1001.000000 
	C1.000000,667.666687 1.000000,334.333344 1.000000,1.000000 
	C334.333344,1.000000 667.666687,1.000000 1001.000000,1.000000 
	C1001.000000,334.333344 1001.000000,667.666687 1001.000000,1001.000000 
	C852.500000,1001.000000 704.000000,1001.000000 555.000000,1001.000000 
M737.362549,195.884796 
	C735.227905,195.610291 733.093323,195.096481 730.958618,195.095673 
	C634.642639,195.058838 538.326660,195.062332 442.010651,195.103104 
	C440.063629,195.103928 438.116821,195.600876 435.218414,195.990845 
	C362.123932,195.990845 289.029449,195.990845 215.893921,195.990845 
	C215.893921,211.263596 215.893921,225.872772 215.893921,241.009598 
	C259.687042,241.009598 303.252472,241.009598 347.245361,241.009598 
	C347.245361,243.495056 347.248627,245.455948 347.244873,247.416840 
	C347.200287,270.579956 347.149384,293.743103 347.111481,316.906219 
	C347.092957,328.237762 346.958069,339.571472 347.129700,350.900360 
	C347.323700,363.704926 350.369659,368.309387 362.463135,372.347290 
	C403.590790,386.079437 444.800629,399.565704 485.995911,413.094696 
	C497.225403,416.782593 508.455872,417.034943 519.806335,413.204132 
	C536.334290,407.625854 552.979553,402.396301 569.545227,396.928467 
	C594.472290,388.700867 619.363098,380.363708 644.291260,372.139435 
	C654.372009,368.813538 658.773438,361.625336 658.895508,351.363861 
	C658.915283,349.697754 658.963501,348.031677 658.960083,346.365662 
	C658.892639,313.537384 658.819275,280.709106 658.747864,247.880814 
	C658.744019,246.108002 658.747375,244.335190 658.747375,242.372879 
	C673.779846,242.372879 688.182922,242.372879 703.172729,242.372879 
	C703.172729,315.343964 703.172729,388.046478 703.172729,460.623962 
	C718.498047,460.623962 733.232910,460.623962 748.400757,460.623962 
	C748.400757,386.998932 748.400757,313.750763 748.400757,239.964142 
	C763.074402,239.964142 777.316101,239.964142 791.808167,239.964142 
	C791.181274,226.460327 790.634460,213.504456 789.892944,200.559738 
	C789.820251,199.290802 788.550415,198.090439 787.224915,196.320190 
	C770.879761,196.258667 754.534668,196.197159 737.362549,195.884796 
M124.255035,579.499878 
	C124.255035,658.585571 124.255035,737.671265 124.255035,816.574890 
	C376.903656,816.574890 628.787292,816.574890 880.418213,816.574890 
	C880.418213,654.259888 880.418213,492.372162 880.418213,330.651306 
	C850.416260,330.651306 820.859314,330.651306 790.812073,330.651306 
	C790.812073,388.988342 790.812073,446.890930 790.812073,504.735840 
	C746.049561,504.735840 701.783691,504.735840 657.029297,504.735840 
	C657.029297,474.760223 657.029297,445.042358 657.029297,414.793427 
	C653.644104,416.009888 650.880554,417.072998 648.072571,418.001465 
	C605.477478,432.085419 562.873413,446.142059 520.279175,460.228638 
	C509.171600,463.902100 498.151611,463.976562 486.973419,460.294403 
	C430.788635,441.786743 374.562531,423.404785 318.362030,404.944794 
	C306.534790,401.059906 303.281372,396.628876 303.220551,384.066711 
	C303.145508,368.567780 303.268707,353.067841 303.304474,337.568359 
	C303.309753,335.289337 303.305237,333.010284 303.305237,330.640442 
	C243.319748,330.640442 183.957169,330.640442 124.255089,330.640442 
	C124.255089,413.543152 124.255089,496.021515 124.255035,579.499878 
z"/>
<path fill="#FFFFFC" opacity="1.000000" stroke="none" 
	d="
M124.255066,578.999878 
	C124.255089,496.021515 124.255089,413.543152 124.255089,330.640442 
	C183.957169,330.640442 243.319748,330.640442 303.305237,330.640442 
	C303.305237,333.010284 303.309753,335.289337 303.304474,337.568359 
	C303.268707,353.067841 303.145508,368.567780 303.220551,384.066711 
	C303.281372,396.628876 306.534790,401.059906 318.362030,404.944794 
	C374.562531,423.404785 430.788635,441.786743 486.973419,460.294403 
	C498.151611,463.976562 509.171600,463.902100 520.279175,460.228638 
	C562.873413,446.142059 605.477478,432.085419 648.072571,418.001465 
	C650.880554,417.072998 653.644104,416.009888 657.029297,414.793427 
	C657.029297,445.042358 657.029297,474.760223 657.029297,504.735840 
	C701.783691,504.735840 746.049561,504.735840 790.812073,504.735840 
	C790.812073,446.890930 790.812073,388.988342 790.812073,330.651306 
	C820.859314,330.651306 850.416260,330.651306 880.418213,330.651306 
	C880.418213,492.372162 880.418213,654.259888 880.418213,816.574890 
	C628.787292,816.574890 376.903656,816.574890 124.255035,816.574890 
	C124.255035,737.671265 124.255035,658.585571 124.255066,578.999878 
M477.092957,551.017090 
	C456.082733,551.067261 435.072479,551.117432 413.127716,551.017456 
	C362.152771,551.017456 311.177826,551.017456 260.291046,551.017456 
	C260.291046,565.923401 260.291046,580.042114 260.277252,594.584229 
	C260.277252,594.584229 260.567780,594.894592 260.680878,595.370972 
	C261.116638,595.465027 261.552368,595.559082 262.917145,595.795654 
	C292.949127,595.755249 322.981140,595.714844 353.925537,595.894592 
	C383.914948,595.909607 413.904358,595.929749 443.893768,595.938171 
	C469.218353,595.945312 494.542969,595.927734 519.867554,595.953796 
	C522.699585,595.956665 525.073303,596.098633 525.000366,591.938843 
	C524.787109,579.780029 524.968445,567.614624 524.835510,555.453552 
	C524.822449,554.262024 523.706482,553.082581 523.051697,551.895874 
	C523.051697,551.895874 523.080017,551.938049 522.624084,551.191223 
	C507.757355,551.180237 492.890625,551.169312 477.092957,551.017090 
M520.842896,685.918884 
	C523.713684,686.203979 524.515259,684.815125 524.507874,682.074463 
	C524.474365,669.591248 524.630615,657.107666 524.675598,644.624023 
	C524.680115,643.374329 524.393860,642.123596 524.231628,640.782898 
	C522.874939,640.669434 521.897217,640.516235 520.919495,640.516113 
	C435.695801,640.505005 350.472076,640.489441 265.248535,640.603149 
	C263.213409,640.605835 261.180206,642.062622 259.023865,643.782776 
	C259.071228,648.167725 259.118591,652.552612 259.022461,657.880005 
	C259.022461,667.145081 259.022461,676.410156 259.022461,686.000000 
	C261.305176,686.000000 262.948151,686.000000 264.591095,686.000000 
	C348.083405,686.000000 431.575684,686.001099 515.067993,685.992432 
	C516.730225,685.992249 518.392517,685.878357 520.842896,685.918884 
M390.749176,504.894440 
	C391.054749,491.744110 391.395966,478.594269 391.582397,465.442261 
	C391.594330,464.600433 390.407501,463.741638 389.101715,462.470306 
	C388.440582,462.406769 387.779572,462.288635 387.118347,462.287506 
	C345.804565,462.217010 304.490753,462.151855 263.176941,462.114502 
	C261.923309,462.113342 260.669403,462.410919 259.601868,462.545715 
	C259.601868,477.208862 259.601868,491.417267 259.601868,505.885315 
	C268.893127,505.885315 277.712311,505.945557 286.530396,505.874756 
	C321.007812,505.597900 355.484863,505.279633 390.749176,504.894440 
M783.660339,621.981445 
	C786.782166,611.242249 786.999146,600.460144 784.289124,589.594177 
	C777.256042,561.394714 747.758057,541.539185 716.974670,546.831299 
	C683.062378,552.661194 660.974243,586.352905 669.918884,619.488770 
	C673.140747,631.424561 679.636536,641.191162 688.787659,649.361633 
	C683.940735,660.627319 679.188721,671.672424 674.295532,683.045715 
	C683.935852,687.159973 693.009949,691.032532 702.375793,695.029663 
	C706.704163,685.123108 710.987488,675.464233 715.127319,665.744202 
	C716.181824,663.268494 717.384888,662.550232 720.307129,662.777222 
	C725.566833,663.185852 730.951843,662.974976 736.191528,662.300415 
	C739.704468,661.848145 741.566650,662.338562 743.010315,665.863281 
	C747.004822,675.616028 751.416748,685.197815 755.747070,695.036621 
	C765.212341,690.936646 774.253662,687.020203 783.534180,683.000244 
	C782.985413,681.529785 782.638611,680.461243 782.195251,679.434387 
	C777.993103,669.701843 773.849976,659.942566 769.507385,650.272888 
	C768.430603,647.875244 768.785583,646.520935 770.325684,644.244873 
	C775.017151,637.311768 779.026672,629.917175 783.660339,621.981445 
z"/>
<path fill="#FFFDFB" opacity="1.000000" stroke="none" 
	d="
M787.836243,196.858246 
	C788.550415,198.090439 789.820251,199.290802 789.892944,200.559738 
	C790.634460,213.504456 791.181274,226.460327 791.808167,239.964142 
	C777.316101,239.964142 763.074402,239.964142 748.400757,239.964142 
	C748.400757,313.750763 748.400757,386.998932 748.400757,460.623962 
	C733.232910,460.623962 718.498047,460.623962 703.172729,460.623962 
	C703.172729,388.046478 703.172729,315.343964 703.172729,242.372879 
	C688.182922,242.372879 673.779846,242.372879 658.747375,242.372879 
	C658.747375,244.335190 658.744019,246.108002 658.747864,247.880814 
	C658.819275,280.709106 658.892639,313.537384 658.960083,346.365662 
	C658.963501,348.031677 658.915283,349.697754 658.895508,351.363861 
	C658.773438,361.625336 654.372009,368.813538 644.291260,372.139435 
	C619.363098,380.363708 594.472290,388.700867 569.545227,396.928467 
	C552.979553,402.396301 536.334290,407.625854 519.806335,413.204132 
	C508.455872,417.034943 497.225403,416.782593 485.995911,413.094696 
	C444.800629,399.565704 403.590790,386.079437 362.463135,372.347290 
	C350.369659,368.309387 347.323700,363.704926 347.129700,350.900360 
	C346.958069,339.571472 347.092957,328.237762 347.111481,316.906219 
	C347.149384,293.743103 347.200287,270.579956 347.244873,247.416840 
	C347.248627,245.455948 347.245361,243.495056 347.245361,241.009598 
	C303.252472,241.009598 259.687042,241.009598 215.893921,241.009598 
	C215.893921,225.872772 215.893921,211.263596 215.893921,195.990845 
	C289.029449,195.990845 362.123932,195.990845 436.141663,195.993774 
	C504.525085,196.313446 571.985046,196.695038 639.445618,196.919128 
	C672.256104,197.028122 705.067505,196.842667 738.356445,196.871735 
	C755.168274,196.921402 771.502258,196.889832 787.836243,196.858246 
z"/>
<path fill="#7A591F" opacity="1.000000" stroke="none" 
	d="
M737.878540,196.790497 
	C705.067505,196.842667 672.256104,197.028122 639.445618,196.919128 
	C571.985046,196.695038 504.525085,196.313446 436.617371,195.931519 
	C438.116821,195.600876 440.063629,195.103928 442.010651,195.103104 
	C538.326660,195.062332 634.642639,195.058838 730.958618,195.095673 
	C733.093323,195.096481 735.227905,195.610291 737.710938,196.180115 
	C738.059387,196.475449 737.878540,196.790497 737.878540,196.790497 
z"/>
<path fill="#12110D" opacity="1.000000" stroke="none" 
	d="
M738.356445,196.871735 
	C737.878540,196.790497 738.059387,196.475449 738.124451,196.305542 
	C754.534668,196.197159 770.879761,196.258667 787.530579,196.589218 
	C771.502258,196.889832 755.168274,196.921402 738.356445,196.871735 
z"/>
<path fill="#E19603" opacity="1.000000" stroke="none" 
	d="
M259.165985,656.937561 
	C259.118591,652.552612 259.071228,648.167725 259.523376,643.331177 
	C264.172852,642.621338 268.322662,642.141357 272.472900,642.137573 
	C353.792114,642.062927 435.111359,642.043701 516.430603,642.013550 
	C516.763855,642.013428 517.097717,642.033386 517.430298,642.019775 
	C521.133606,641.868347 523.023438,643.538391 523.002441,647.349243 
	C522.940002,658.680298 523.021179,670.013489 522.779968,681.340210 
	C522.752563,682.628906 521.034424,683.881531 519.623779,685.108276 
	C436.264526,685.044617 353.381805,685.039978 270.499054,684.984070 
	C258.560577,684.976013 260.191132,686.464050 259.965637,674.237671 
	C259.859192,668.467957 259.442261,662.704102 259.165985,656.937561 
z"/>
<path fill="#CD8A01" opacity="1.000000" stroke="none" 
	d="
M783.480957,622.341797 
	C779.026672,629.917175 775.017151,637.311768 770.325684,644.244873 
	C768.785583,646.520935 768.430603,647.875244 769.507385,650.272888 
	C773.849976,659.942566 777.993103,669.701843 782.195251,679.434387 
	C782.638611,680.461243 782.985413,681.529785 783.534180,683.000244 
	C774.253662,687.020203 765.212341,690.936646 755.747070,695.036621 
	C751.416748,685.197815 747.004822,675.616028 743.010315,665.863281 
	C741.566650,662.338562 739.704468,661.848145 736.191528,662.300415 
	C730.951843,662.974976 725.566833,663.185852 720.307129,662.777222 
	C717.384888,662.550232 716.181824,663.268494 715.127319,665.744202 
	C710.987488,675.464233 706.704163,685.123108 702.375793,695.029663 
	C693.009949,691.032532 683.935852,687.159973 674.295532,683.045715 
	C679.188721,671.672424 683.940735,660.627319 688.787659,649.361633 
	C679.636536,641.191162 673.140747,631.424561 669.918884,619.488770 
	C660.974243,586.352905 683.062378,552.661194 716.974670,546.831299 
	C747.758057,541.539185 777.256042,561.394714 784.289124,589.594177 
	C786.999146,600.460144 786.782166,611.242249 783.480957,622.341797 
M709.542053,588.105469 
	C705.738770,592.955200 703.758484,598.299927 703.904907,604.625427 
	C704.190308,616.961487 714.215027,627.586975 726.452576,628.042480 
	C740.694336,628.572571 752.070374,619.088562 752.952271,605.950134 
	C753.647156,595.596069 748.325256,586.323730 739.219849,582.024292 
	C729.124878,577.257568 718.786377,579.224365 709.542053,588.105469 
z"/>
<path fill="#D18C00" opacity="1.000000" stroke="none" 
	d="
M260.291046,594.160889 
	C260.291046,580.042114 260.291046,565.923401 260.291046,551.017456 
	C311.177826,551.017456 362.152771,551.017456 413.955688,551.276611 
	C435.898102,551.652527 457.012573,551.769287 478.584045,551.888550 
	C493.720734,551.906616 508.400391,551.922363 523.080017,551.938110 
	C523.080017,551.938049 523.051697,551.895874 523.032349,552.368835 
	C523.020996,564.823730 522.946838,576.806580 523.084412,588.787048 
	C523.128723,592.648865 521.619995,594.342224 517.769104,594.062561 
	C516.113770,593.942322 514.442139,594.047913 512.777954,594.048950 
	C462.186554,594.080017 411.595154,594.110901 360.533813,594.121704 
	C326.806274,594.121338 293.548676,594.141113 260.291046,594.160889 
z"/>
<path fill="#D38D03" opacity="1.000000" stroke="none" 
	d="
M389.962067,504.976807 
	C355.484863,505.279633 321.007812,505.597900 286.530396,505.874756 
	C277.712311,505.945557 268.893127,505.885315 259.601868,505.885315 
	C259.601868,491.417267 259.601868,477.208862 259.601868,462.545715 
	C260.669403,462.410919 261.923309,462.113342 263.176941,462.114502 
	C304.490753,462.151855 345.804565,462.217010 387.118347,462.287506 
	C387.779572,462.288635 388.440582,462.406769 389.487518,463.159241 
	C389.902893,477.557709 389.932495,491.267242 389.962067,504.976807 
z"/>
<path fill="#9C711B" opacity="1.000000" stroke="none" 
	d="
M520.100281,685.150879 
	C521.034424,683.881531 522.752563,682.628906 522.779968,681.340210 
	C523.021179,670.013489 522.940002,658.680298 523.002441,647.349243 
	C523.023438,643.538391 521.133606,641.868347 517.430298,642.019775 
	C517.097717,642.033386 516.763855,642.013428 516.430603,642.013550 
	C435.111359,642.043701 353.792114,642.062927 272.472900,642.137573 
	C268.322662,642.141357 264.172852,642.621338 259.584473,642.860474 
	C261.180206,642.062622 263.213409,640.605835 265.248535,640.603149 
	C350.472076,640.489441 435.695801,640.505005 520.919495,640.516113 
	C521.897217,640.516235 522.874939,640.669434 524.231628,640.782898 
	C524.393860,642.123596 524.680115,643.374329 524.675598,644.624023 
	C524.630615,657.107666 524.474365,669.591248 524.507874,682.074463 
	C524.515259,684.815125 523.713684,686.203979 520.456909,685.701355 
	C520.070862,685.483826 520.100281,685.150879 520.100281,685.150879 
z"/>
<path fill="#9C7529" opacity="1.000000" stroke="none" 
	d="
M361.003754,594.141785 
	C411.595154,594.110901 462.186554,594.080017 512.777954,594.048950 
	C514.442139,594.047913 516.113770,593.942322 517.769104,594.062561 
	C521.619995,594.342224 523.128723,592.648865 523.084412,588.787048 
	C522.946838,576.806580 523.020996,564.823730 523.057739,552.369629 
	C523.706482,553.082581 524.822449,554.262024 524.835510,555.453552 
	C524.968445,567.614624 524.787109,579.780029 525.000366,591.938843 
	C525.073303,596.098633 522.699585,595.956665 519.867554,595.953796 
	C494.542969,595.927734 469.218353,595.945312 443.893768,595.938171 
	C413.904358,595.929749 383.914948,595.909607 353.788940,595.584106 
	C356.102783,594.896362 358.553284,594.519043 361.003754,594.141785 
z"/>
<path fill="#BA8114" opacity="1.000000" stroke="none" 
	d="
M519.623779,685.108276 
	C520.100281,685.150879 520.070862,685.483826 520.062805,685.650696 
	C518.392517,685.878357 516.730225,685.992249 515.067993,685.992432 
	C431.575684,686.001099 348.083405,686.000000 264.591095,686.000000 
	C262.948151,686.000000 261.305176,686.000000 259.022461,686.000000 
	C259.022461,676.410156 259.022461,667.145081 259.094238,657.408813 
	C259.442261,662.704102 259.859192,668.467957 259.965637,674.237671 
	C260.191132,686.464050 258.560577,684.976013 270.499054,684.984070 
	C353.381805,685.039978 436.264526,685.044617 519.623779,685.108276 
z"/>
<path fill="#805500" opacity="1.000000" stroke="none" 
	d="
M360.533813,594.121704 
	C358.553284,594.519043 356.102783,594.896362 353.332703,595.473999 
	C322.981140,595.714844 292.949127,595.755249 262.336914,595.543213 
	C261.360413,595.158691 260.964081,595.026672 260.567780,594.894592 
	C260.567780,594.894592 260.277252,594.584229 260.284149,594.372559 
	C293.548676,594.141113 326.806274,594.121338 360.533813,594.121704 
z"/>
<path fill="#8C6A27" opacity="1.000000" stroke="none" 
	d="
M390.355621,504.935608 
	C389.932495,491.267242 389.902893,477.557709 389.825806,463.369446 
	C390.407501,463.741638 391.594330,464.600433 391.582397,465.442261 
	C391.395966,478.594269 391.054749,491.744110 390.355621,504.935608 
z"/>
<path fill="#B17802" opacity="1.000000" stroke="none" 
	d="
M478.127014,551.886108 
	C457.012573,551.769287 435.898102,551.652527 414.422974,551.351685 
	C435.072479,551.117432 456.082733,551.067261 477.579315,551.270325 
	C478.065674,551.523560 478.127014,551.886108 478.127014,551.886108 
z"/>
<path fill="#82601E" opacity="1.000000" stroke="none" 
	d="
M478.584045,551.888550 
	C478.127014,551.886108 478.065674,551.523560 478.044800,551.340942 
	C492.890625,551.169312 507.757355,551.180237 522.852051,551.564697 
	C508.400391,551.922363 493.720734,551.906616 478.584045,551.888550 
z"/>
<path fill="#9C7529" opacity="1.000000" stroke="none" 
	d="
M260.624329,595.132812 
	C260.964081,595.026672 261.360413,595.158691 261.872437,595.471924 
	C261.552368,595.559082 261.116638,595.465027 260.624329,595.132812 
z"/>
<path fill="#FFFEFB" opacity="1.000000" stroke="none" 
	d="
M709.790955,587.840515 
	C718.786377,579.224365 729.124878,577.257568 739.219849,582.024292 
	C748.325256,586.323730 753.647156,595.596069 752.952271,605.950134 
	C752.070374,619.088562 740.694336,628.572571 726.452576,628.042480 
	C714.215027,627.586975 704.190308,616.961487 703.904907,604.625427 
	C703.758484,598.299927 705.738770,592.955200 709.790955,587.840515 
z"/>
</svg>