<?xml version="1.0" encoding="UTF-8"?>
<!DOCTYPE svg PUBLIC "-//W3C//DTD SVG 1.1//EN" "http://www.w3.org/Graphics/SVG/1.1/DTD/svg11.dtd">
<svg xmlns="http://www.w3.org/2000/svg" version="1.1" width="900px" height="441px" style="shape-rendering:geometricPrecision; text-rendering:geometricPrecision; image-rendering:optimizeQuality; fill-rule:evenodd; clip-rule:evenodd" xmlns:xlink="http://www.w3.org/1999/xlink">
<g><path style="opacity:1" fill="#f6f6f6" d="M -0.5,-0.5 C 299.5,-0.5 599.5,-0.5 899.5,-0.5C 899.5,146.5 899.5,293.5 899.5,440.5C 599.5,440.5 299.5,440.5 -0.5,440.5C -0.5,293.5 -0.5,146.5 -0.5,-0.5 Z"/></g>
<g><path style="opacity:1" fill="#e9a763" d="M 623.5,208.5 C 623.5,156.5 623.5,104.5 623.5,52.5C 506.5,52.5 389.5,52.5 272.5,52.5C 271.838,104.844 272.504,156.844 274.5,208.5C 273.791,209.404 272.791,209.737 271.5,209.5C 271.5,156.833 271.5,104.167 271.5,51.5C 389.167,51.5 506.833,51.5 624.5,51.5C 624.832,104.003 624.499,156.336 623.5,208.5 Z"/></g>
<g><path style="opacity:1" fill="#e5811e" d="M 623.5,208.5 C 620.482,208.296 617.482,207.963 614.5,207.5C 614.831,158.928 614.497,110.428 613.5,62C 503.167,61.5 392.834,61.3333 282.5,61.5C 282.5,110.167 282.5,158.833 282.5,207.5C 279.721,207.279 277.054,207.612 274.5,208.5C 272.504,156.844 271.838,104.844 272.5,52.5C 389.5,52.5 506.5,52.5 623.5,52.5C 623.5,104.5 623.5,156.5 623.5,208.5 Z"/></g>
<g><path style="opacity:1" fill="#f4d9c0" d="M 614.5,207.5 C 613.501,159.67 613.168,111.67 613.5,63.5C 503.5,63.5 393.5,63.5 283.5,63.5C 283.832,111.67 283.499,159.67 282.5,207.5C 282.5,158.833 282.5,110.167 282.5,61.5C 392.834,61.3333 503.167,61.5 613.5,62C 614.497,110.428 614.831,158.928 614.5,207.5 Z"/></g>
<g><path style="opacity:1" fill="#e5811f" d="M 469.5,186.5 C 469.154,194.719 468.154,202.719 466.5,210.5C 453.794,206.563 441.127,206.563 428.5,210.5C 427.833,202.167 427.167,193.833 426.5,185.5C 426.083,176.833 425.583,168.166 425,159.5C 411.93,147.375 401.264,133.375 393,117.5C 392.805,109.169 396.638,106.669 404.5,110C 412.625,124.128 422.292,137.128 433.5,149C 438.223,150.112 443.056,150.612 448,150.5C 452.944,150.612 457.777,150.112 462.5,149C 474.203,136.919 484.203,123.586 492.5,109C 499.675,107.52 503.175,110.353 503,117.5C 494.736,133.375 484.07,147.375 471,159.5C 470.3,168.493 469.8,177.493 469.5,186.5 Z"/></g>
<g><path style="opacity:1" fill="#e58323" d="M 442.5,116.5 C 455.999,115.171 462.499,121.171 462,134.5C 456.815,144.012 449.315,146.512 439.5,142C 430.811,132.325 431.811,123.825 442.5,116.5 Z"/></g>
<g><path style="opacity:1" fill="#4b4b4b" d="M 390.5,174.5 C 385.797,174.437 381.13,174.771 376.5,175.5C 378.807,173.953 381.473,173.287 384.5,173.5C 386.696,173.505 388.696,173.838 390.5,174.5 Z"/></g>
<g><path style="opacity:1" fill="#464646" d="M 514.5,174.5 C 510.131,174.467 505.798,174.8 501.5,175.5C 503.634,173.967 506.134,173.3 509,173.5C 511.033,173.506 512.866,173.839 514.5,174.5 Z"/></g>
<g><path style="opacity:1" fill="#050505" d="M 390.5,174.5 C 409.421,181.13 414.255,193.463 405,211.5C 392.556,224.363 379.89,224.697 367,212.5C 357.517,196.76 360.684,184.427 376.5,175.5C 381.13,174.771 385.797,174.437 390.5,174.5 Z"/></g>
<g><path style="opacity:1" fill="#040404" d="M 514.5,174.5 C 522.388,175.393 528.055,179.393 531.5,186.5C 533.085,191.678 533.752,197.012 533.5,202.5C 528.795,217.007 518.795,223.174 503.5,221C 486.062,211.693 482.228,198.526 492,181.5C 494.802,178.854 497.968,176.854 501.5,175.5C 505.798,174.8 510.131,174.467 514.5,174.5 Z"/></g>
<g><path style="opacity:1" fill="#efc8a1" d="M 426.5,185.5 C 427.167,193.833 427.833,202.167 428.5,210.5C 428.44,211.043 428.107,211.376 427.5,211.5C 426.502,202.859 426.169,194.192 426.5,185.5 Z"/></g>
<g><path style="opacity:1" fill="#585858" d="M 531.5,186.5 C 532.558,187.6 533.392,188.934 534,190.5C 534.812,194.689 534.645,198.689 533.5,202.5C 533.752,197.012 533.085,191.678 531.5,186.5 Z"/></g>
<g><path style="opacity:1" fill="#ecb681" d="M 469.5,186.5 C 469.5,194.833 469.5,203.167 469.5,211.5C 468.209,211.737 467.209,211.404 466.5,210.5C 468.154,202.719 469.154,194.719 469.5,186.5 Z"/></g>
<g><path style="opacity:1" fill="#5a5a5a" d="M 291.5,228.5 C 286.463,228.413 281.463,228.746 276.5,229.5C 279.186,228.009 282.186,227.343 285.5,227.5C 287.696,227.505 289.696,227.838 291.5,228.5 Z"/></g>
<g><path style="opacity:1" fill="#030303" d="M 291.5,228.5 C 308.47,232.114 316.803,242.448 316.5,259.5C 306.653,267.007 299.986,276.674 296.5,288.5C 271.903,292.879 258.236,282.713 255.5,258C 256.186,243.818 263.186,234.318 276.5,229.5C 281.463,228.746 286.463,228.413 291.5,228.5 Z"/></g>
<g><path style="opacity:1" fill="#030303" d="M 458.5,288.5 C 453.537,289.254 448.537,289.587 443.5,289.5C 429.224,286.557 420.557,277.89 417.5,263.5C 417.312,257.712 417.978,252.045 419.5,246.5C 428.865,229.148 442.865,223.981 461.5,231C 476.343,238.858 481.843,251.024 478,267.5C 474.374,277.289 467.874,284.289 458.5,288.5 Z"/></g>
<g><path style="opacity:1" fill="#030303" d="M 620.5,288.5 C 615.203,289.275 609.87,289.608 604.5,289.5C 602.883,288.962 601.216,288.629 599.5,288.5C 596.067,276.643 589.4,266.976 579.5,259.5C 579.552,255.802 579.886,252.135 580.5,248.5C 586.665,233.246 597.998,226.412 614.5,228C 634.596,233.104 643.096,245.937 640,266.5C 636.801,276.86 630.301,284.194 620.5,288.5 Z"/></g>
<g><path style="opacity:1" fill="#0a0a0a" d="M 397.5,248.5 C 396.833,254.833 396.167,261.167 395.5,267.5C 386.049,257.271 374.382,250.938 360.5,248.5C 356.167,247.833 351.833,247.167 347.5,246.5C 363.128,230.19 381.461,226.19 402.5,234.5C 399.692,238.779 398.025,243.445 397.5,248.5 Z"/></g>
<g><path style="opacity:1" fill="#090909" d="M 499.5,230.5 C 518.933,228.016 535.6,233.516 549.5,247C 529.434,246.12 512.934,253.286 500,268.5C 500.946,255.83 498.78,243.83 493.5,232.5C 495.786,232.405 497.786,231.738 499.5,230.5 Z"/></g>
<g><path style="opacity:1" fill="#a7a7a7" d="M 347.5,246.5 C 351.833,247.167 356.167,247.833 360.5,248.5C 355.786,248.827 351.12,248.493 346.5,247.5C 346.624,246.893 346.957,246.56 347.5,246.5 Z"/></g>
<g><path style="opacity:1" fill="#707070" d="M 580.5,248.5 C 579.886,252.135 579.552,255.802 579.5,259.5C 578.098,255.71 578.431,252.044 580.5,248.5 Z"/></g>
<g><path style="opacity:1" fill="#c5c5c5" d="M 397.5,248.5 C 397.274,255.876 397.608,263.209 398.5,270.5C 397.5,270.5 396.5,270.5 395.5,270.5C 395.5,269.5 395.5,268.5 395.5,267.5C 396.167,261.167 396.833,254.833 397.5,248.5 Z"/></g>
<g><path style="opacity:1" fill="#6f6f6f" d="M 419.5,246.5 C 417.978,252.045 417.312,257.712 417.5,263.5C 415.886,257.601 416.552,251.935 419.5,246.5 Z"/></g>
<g><path style="opacity:1" fill="#464646" d="M 165.5,269.5 C 159.131,269.347 152.797,269.68 146.5,270.5C 149.865,268.961 153.531,268.294 157.5,268.5C 160.355,268.503 163.022,268.836 165.5,269.5 Z"/></g>
<g><path style="opacity:1" fill="#020202" d="M 165.5,269.5 C 180.241,272.577 189.908,281.244 194.5,295.5C 195.229,300.13 195.563,304.797 195.5,309.5C 195.5,310.5 195.5,311.5 195.5,312.5C 194.129,314.936 193.129,317.603 192.5,320.5C 183.948,337.112 170.281,344.279 151.5,342C 130.385,335.296 120.551,320.796 122,298.5C 125.041,284.629 133.208,275.295 146.5,270.5C 152.797,269.68 159.131,269.347 165.5,269.5 Z"/></g>
<g><path style="opacity:1" fill="#424242" d="M 358.5,269.5 C 352.131,269.347 345.797,269.68 339.5,270.5C 342.865,268.961 346.531,268.294 350.5,268.5C 353.355,268.503 356.022,268.836 358.5,269.5 Z"/></g>
<g><path style="opacity:1" fill="#020202" d="M 358.5,269.5 C 376.676,273.673 386.676,285.007 388.5,303.5C 388.35,321.96 379.684,334.294 362.5,340.5C 355.857,341.212 349.191,341.546 342.5,341.5C 324.931,335.576 315.598,323.242 314.5,304.5C 315.542,287.73 323.875,276.397 339.5,270.5C 345.797,269.68 352.131,269.347 358.5,269.5 Z"/></g>
<g><path style="opacity:1" fill="#030303" d="M 555.5,340.5 C 547.825,341.732 540.158,341.732 532.5,340.5C 518.227,334.951 509.893,324.618 507.5,309.5C 507.437,304.797 507.771,300.13 508.5,295.5C 518.298,271.388 535.632,263.555 560.5,272C 579.999,283.176 585.833,299.343 578,320.5C 573.679,330.744 566.179,337.41 555.5,340.5 Z"/></g>
<g><path style="opacity:1" fill="#3b3b3b" d="M 744.5,269.5 C 737.045,269.152 729.712,269.818 722.5,271.5C 724.019,270.59 725.685,269.757 727.5,269C 733.349,268.182 739.015,268.348 744.5,269.5 Z"/></g>
<g><path style="opacity:1" fill="#030303" d="M 744.5,269.5 C 763.429,274.01 773.429,286.01 774.5,305.5C 770.53,331.969 755.196,344.136 728.5,342C 705.625,333.087 696.792,316.587 702,292.5C 706.323,283.011 713.156,276.011 722.5,271.5C 729.712,269.818 737.045,269.152 744.5,269.5 Z"/></g>
<g><path style="opacity:1" fill="#b0b0b0" d="M 458.5,288.5 C 455.814,289.991 452.814,290.657 449.5,290.5C 447.304,290.495 445.304,290.162 443.5,289.5C 448.537,289.587 453.537,289.254 458.5,288.5 Z"/></g>
<g><path style="opacity:1" fill="#b3b3b3" d="M 620.5,288.5 C 617.644,290.006 614.477,290.672 611,290.5C 608.639,290.496 606.473,290.163 604.5,289.5C 609.87,289.608 615.203,289.275 620.5,288.5 Z"/></g>
<g><path style="opacity:1" fill="#828282" d="M 194.5,295.5 C 195.973,298.017 196.64,300.85 196.5,304C 196.494,306.033 196.161,307.866 195.5,309.5C 195.563,304.797 195.229,300.13 194.5,295.5 Z"/></g>
<g><path style="opacity:1" fill="#3b3b3b" d="M 294.5,314.5 C 293.011,310.764 292.344,306.764 292.5,302.5C 284.799,302.309 277.132,302.642 269.5,303.5C 269.918,302.778 270.584,302.278 271.5,302C 279.159,301.5 286.826,301.334 294.5,301.5C 294.5,305.833 294.5,310.167 294.5,314.5 Z"/></g>
<g><path style="opacity:1" fill="#333333" d="M 458.5,302.5 C 449.467,302.284 440.467,302.617 431.5,303.5C 432.263,302.732 433.263,302.232 434.5,302C 442.677,301.177 450.677,301.344 458.5,302.5 Z"/></g>
<g><path style="opacity:1" fill="#b4b4b4" d="M 508.5,295.5 C 507.771,300.13 507.437,304.797 507.5,309.5C 506.839,307.866 506.506,306.033 506.5,304C 506.36,300.85 507.027,298.017 508.5,295.5 Z"/></g>
<g><path style="opacity:1" fill="#040404" d="M 294.5,314.5 C 296.478,324.459 300.645,333.459 307,341.5C 307.667,342.5 307.667,343.5 307,344.5C 289.22,353.449 274.72,366.116 263.5,382.5C 260.833,382.5 258.167,382.5 255.5,382.5C 255.833,369.15 255.499,355.817 254.5,342.5C 253.893,342.624 253.56,342.957 253.5,343.5C 249.826,347.507 247.159,352.173 245.5,357.5C 244.076,359.515 243.41,361.848 243.5,364.5C 242.833,368.167 242.167,371.833 241.5,375.5C 234.846,367.847 227.513,360.847 219.5,354.5C 218.369,352.926 218.202,351.259 219,349.5C 228.117,325.543 244.951,310.21 269.5,303.5C 277.132,302.642 284.799,302.309 292.5,302.5C 292.344,306.764 293.011,310.764 294.5,314.5 Z"/></g>
<g><path style="opacity:1" fill="#030303" d="M 458.5,302.5 C 468.062,303.966 477.062,307.132 485.5,312C 487.747,313.995 488.747,316.495 488.5,319.5C 488.345,322.716 489.345,325.383 491.5,327.5C 494.393,333.286 497.226,338.952 500,344.5C 496.076,347.213 491.909,349.547 487.5,351.5C 484.841,348.671 482.341,345.671 480,342.5C 479.667,347.833 479.333,353.167 479,358.5C 470.083,365.415 462.583,373.582 456.5,383C 450.833,383.667 445.167,383.667 439.5,383C 433.384,373.718 426.05,365.551 417.5,358.5C 417.828,353.125 417.495,347.792 416.5,342.5C 415.893,342.624 415.56,342.957 415.5,343.5C 413.164,346.176 410.831,348.842 408.5,351.5C 403.667,349.586 399.334,346.92 395.5,343.5C 401.1,336.3 405.1,328.3 407.5,319.5C 408.924,317.485 409.59,315.152 409.5,312.5C 416.142,307.847 423.476,304.847 431.5,303.5C 440.467,302.617 449.467,302.284 458.5,302.5 Z"/></g>
<g><path style="opacity:1" fill="#040404" d="M 654.5,375.5 C 653.833,371.833 653.167,368.167 652.5,364.5C 651.449,356.316 648.116,349.316 642.5,343.5C 642.44,342.957 642.107,342.624 641.5,342.5C 640.501,355.817 640.167,369.15 640.5,382.5C 637.833,382.5 635.167,382.5 632.5,382.5C 627.342,375.083 621.342,368.25 614.5,362C 606.152,355.496 597.485,349.496 588.5,344C 597.661,331.349 602.328,317.182 602.5,301.5C 631.183,300.092 653.683,311.092 670,334.5C 673.196,340.055 675.696,345.889 677.5,352C 669.696,359.638 662.03,367.471 654.5,375.5 Z"/></g>
<g><path style="opacity:1" fill="#888888" d="M 195.5,312.5 C 195.655,315.716 194.655,318.383 192.5,320.5C 193.129,317.603 194.129,314.936 195.5,312.5 Z"/></g>
<g><path style="opacity:1" fill="#555555" d="M 409.5,312.5 C 409.59,315.152 408.924,317.485 407.5,319.5C 407.41,316.848 408.076,314.515 409.5,312.5 Z"/></g>
<g><path style="opacity:1" fill="#626262" d="M 488.5,319.5 C 489.871,321.936 490.871,324.603 491.5,327.5C 489.345,325.383 488.345,322.716 488.5,319.5 Z"/></g>
<g><path style="opacity:1" fill="#3e3e3e" d="M 362.5,340.5 C 358.594,341.94 354.427,342.606 350,342.5C 347.31,342.497 344.81,342.164 342.5,341.5C 349.191,341.546 355.857,341.212 362.5,340.5 Z"/></g>
<g><path style="opacity:1" fill="#404040" d="M 532.5,340.5 C 540.158,341.732 547.825,341.732 555.5,340.5C 551.594,341.94 547.427,342.606 543,342.5C 539.195,342.696 535.695,342.03 532.5,340.5 Z"/></g>
<g><path style="opacity:1" fill="#858585" d="M 253.5,343.5 C 253.56,342.957 253.893,342.624 254.5,342.5C 255.499,355.817 255.833,369.15 255.5,382.5C 258.167,382.5 260.833,382.5 263.5,382.5C 260.713,383.477 257.713,383.81 254.5,383.5C 254.829,369.99 254.496,356.656 253.5,343.5 Z"/></g>
<g><path style="opacity:1" fill="#696969" d="M 415.5,343.5 C 415.56,342.957 415.893,342.624 416.5,342.5C 417.495,347.792 417.828,353.125 417.5,358.5C 416.833,353.5 416.167,348.5 415.5,343.5 Z"/></g>
<g><path style="opacity:1" fill="#7f7f7f" d="M 642.5,343.5 C 641.504,356.656 641.171,369.99 641.5,383.5C 638.287,383.81 635.287,383.477 632.5,382.5C 635.167,382.5 637.833,382.5 640.5,382.5C 640.167,369.15 640.501,355.817 641.5,342.5C 642.107,342.624 642.44,342.957 642.5,343.5 Z"/></g>
<g><path style="opacity:1" fill="#020202" d="M 148.5,355.5 C 185.275,353.884 213.275,368.55 232.5,399.5C 183.5,400.833 134.5,400.833 85.5,399.5C 99.825,375.179 120.825,360.512 148.5,355.5 Z"/></g>
<g><path style="opacity:1" fill="#030303" d="M 363.5,356.5 C 369.5,357.716 375.5,359.383 381.5,361.5C 400.535,369.031 415.202,381.697 425.5,399.5C 376.17,400.667 326.837,400.833 277.5,400C 297.077,367.711 325.744,353.211 363.5,356.5 Z"/></g>
<g><path style="opacity:1" fill="#aeaeae" d="M 363.5,356.5 C 370.183,356.178 376.183,357.845 381.5,361.5C 375.5,359.383 369.5,357.716 363.5,356.5 Z"/></g>
<g><path style="opacity:1" fill="#020202" d="M 536.5,355.5 C 572.705,354.429 600.038,369.262 618.5,400C 569.167,400.667 519.833,400.667 470.5,400C 485.313,374.432 507.313,359.599 536.5,355.5 Z"/></g>
<g><path style="opacity:1" fill="#020202" d="M 758.5,358.5 C 761.939,360.204 765.605,361.538 769.5,362.5C 787.24,370.236 800.906,382.569 810.5,399.5C 761.5,400.833 712.5,400.833 663.5,399.5C 685.514,363.664 717.18,349.997 758.5,358.5 Z"/></g>
<g><path style="opacity:1" fill="#8b8b8b" d="M 758.5,358.5 C 762.708,358.677 766.374,360.01 769.5,362.5C 765.605,361.538 761.939,360.204 758.5,358.5 Z"/></g>
<g><path style="opacity:1" fill="#777777" d="M 245.5,357.5 C 245.59,360.152 244.924,362.485 243.5,364.5C 243.41,361.848 244.076,359.515 245.5,357.5 Z"/></g>
<g><path style="opacity:1" fill="#616161" d="M 652.5,364.5 C 653.167,368.167 653.833,371.833 654.5,375.5C 654.631,376.376 654.298,377.043 653.5,377.5C 652.508,373.217 652.174,368.884 652.5,364.5 Z"/></g>
<g><path style="opacity:1" fill="#555555" d="M 243.5,364.5 C 243.826,368.884 243.492,373.217 242.5,377.5C 241.702,377.043 241.369,376.376 241.5,375.5C 242.167,371.833 242.833,368.167 243.5,364.5 Z"/></g>
</svg>
